# xmcd
#
# Track frame offsets:
#	150
#	20087
#	37730
#	57335
#	76855
#	91192
#	108005
#	124695
#	146095
#	163450
#
# Disc length: 2466 seconds
#
# Revision: 0
# Processed by: cddbd v1.5.1PL2 Copyright (c) Steve Scherf et al.
# Submitted via: dBpowerAMP V4.0
#
DISCID=7a09a00a
DTITLE=Times - Sad But True
DYEAR=1997
DGENRE=Alternative
TTITLE0=The Ballad Of Me...
TTITLE1=Just A Song
TTITLE2=Changing Of The Guard
TTITLE3=Almost A Religion
TTITLE4=Obviously One More Disbeliever
TTITLE5=Your Ship Is Almost Built
TTITLE6=Riot House
TTITLE7=See Ya Wouldn't Wanna Be Ya
TTITLE8=Two Hitlers In One Bunker
TTITLE9=Coming From This Heart
EXTD=
EXTT0=
EXTT1=
EXTT2=
EXTT3=
EXTT4=
EXTT5=
EXTT6=
EXTT7=
EXTT8=
EXTT9=
PLAYORDER=
